ffmpeg started on 2016-11-25 at 07:27:39
Report written to "Output/NVENCh264/results/ffmpeg/crowd_run_2160p50hq8000k.log"
Command line:
Tools/ffmpeg/ffmpeg -benchmark -y -i Input/y4m/crowd_run_2160p50.y4m -c:v h264_nvenc -preset hq -b:v 8000k -an Output/NVENCh264/encoded/crowd_run_2160p50hq8000k.mkv
ffmpeg version N-82227-gdb23fde Copyright (c) 2000-2016 the FFmpeg developers
  built with gcc 5.4.0 (Ubuntu 5.4.0-6ubuntu1~16.04.2) 20160609
  configuration: --prefix=/home/jaroslav/ffmpeg_build --pkg-config-flags=--static --extra-cflags=-I/home/jaroslav/ffmpeg_build/include --extra-ldflags=-L/home/jaroslav/ffmpeg_build/lib --bindir=/home/jaroslav/bin --enable-gpl --enable-libass --enable-libfdk-aac --enable-libfreetype --enable-libmp3lame --enable-libopus --enable-libtheora --enable-libvorbis --enable-libvpx --enable-libx264 --enable-libx265 --enable-nvenc --enable-libmfx --enable-libxvid --enable-libgsm --enable-libopencore-amrnb --enable-version3 --enable-nonfree
  libavutil      55. 35.100 / 55. 35.100
  libavcodec     57. 66.101 / 57. 66.101
  libavformat    57. 57.100 / 57. 57.100
  libavdevice    57.  2.100 / 57.  2.100
  libavfilter     6. 66.100 /  6. 66.100
  libswscale      4.  3.100 /  4.  3.100
  libswresample   2.  4.100 /  2.  4.100
  libpostproc    54.  2.100 / 54.  2.100
Input #0, yuv4mpegpipe, from 'Input/y4m/crowd_run_2160p50.y4m':
  Duration: 00:00:10.00, start: 0.000000, bitrate: 4976642 kb/s
    Stream #0:0: Video: rawvideo (I420 / 0x30323449), yuv420p(progressive), 3840x2160, SAR 1:1 DAR 16:9, 50 fps, 50 tbr, 50 tbn, 50 tbc
Output #0, matroska, to 'Output/NVENCh264/encoded/crowd_run_2160p50hq8000k.mkv':
  Metadata:
    encoder         : Lavf57.57.100
    Stream #0:0: Video: h264 (h264_nvenc) (Main) (H264 / 0x34363248), yuv420p, 3840x2160 [SAR 1:1 DAR 16:9], q=-1--1, 8000 kb/s, 50 fps, 1k tbn, 50 tbc
    Metadata:
      encoder         : Lavc57.66.101 h264_nvenc
    Side data:
      cpb: bitrate max/min/avg: 0/0/8000000 buffer size: 16000000 vbv_delay: -1
Stream mapping:
  Stream #0:0 -> #0:0 (rawvideo (native) -> h264 (h264_nvenc))
Press [q] to stop, [?] for help
frame=    6 fps=0.0 q=0.0 size=       0kB time=00:00:00.00 bitrate=N/A speed=   0x    frame=   24 fps= 19 q=0.0 size=       0kB time=00:00:00.00 bitrate=N/A speed=   0x    frame=   42 fps= 23 q=46.0 size=       1kB time=00:00:00.22 bitrate=  26.5kbits/s speed=0.124x    frame=   60 fps= 26 q=46.0 size=       1kB time=00:00:00.58 bitrate=  10.1kbits/s speed=0.252x    frame=   78 fps= 28 q=45.0 size=       1kB time=00:00:00.94 bitrate=   6.2kbits/s speed=0.333x    frame=   96 fps= 29 q=45.0 size=       1kB time=00:00:01.30 bitrate=   4.5kbits/s speed=0.39x    frame=  114 fps= 29 q=45.0 size=       1kB time=00:00:01.66 bitrate=   3.5kbits/s speed=0.43x    frame=  125 fps= 18 q=46.0 size=       1kB time=00:00:01.88 bitrate=   3.1kbits/s speed=0.263x    frame=  126 fps= 12 q=46.0 size=       1kB time=00:00:01.90 bitrate=   3.1kbits/s speed=0.177x    frame=  143 fps= 13 q=46.0 size=       1kB time=00:00:02.24 bitrate=   2.6kbits/s speed= 0.2x    frame=  161 fps= 14 q=46.0 size=       1kB time=00:00:02.60 bitrate=   2.3kbits/s speed=0.221x    frame=  178 fps= 15 q=46.0 size=       1kB time=00:00:02.94 bitrate=   2.0kbits/s speed=0.24x    frame=  195 fps= 15 q=46.0 size=       1kB time=00:00:03.28 bitrate=   1.8kbits/s speed=0.257x    frame=  212 fps= 16 q=46.0 size=       1kB time=00:00:03.62 bitrate=   1.6kbits/s speed=0.273x    frame=  230 fps= 17 q=45.0 size=       1kB time=00:00:03.98 bitrate=   1.5kbits/s speed=0.289x    frame=  248 fps= 17 q=45.0 size=       1kB time=00:00:04.34 bitrate=   1.4kbits/s speed=0.303x    frame=  266 fps= 18 q=45.0 size=       1kB time=00:00:04.70 bitrate=   1.2kbits/s speed=0.317x    frame=  283 fps= 18 q=46.0 size=    4374kB time=00:00:05.04 bitrate=7108.5kbits/s speed=0.328x    frame=  301 fps= 19 q=45.0 size=    4374kB time=00:00:05.40 bitrate=6634.6kbits/s speed=0.34x    frame=  319 fps= 19 q=45.0 size=    4374kB time=00:00:05.76 bitrate=6220.1kbits/s speed=0.352x    frame=  337 fps= 20 q=45.0 size=    4374kB time=00:00:06.12 bitrate=5854.2kbits/s speed=0.362x    frame=  355 fps= 20 q=46.0 size=    4374kB time=00:00:06.48 bitrate=5529.0kbits/s speed=0.372x    frame=  373 fps= 21 q=46.0 size=    4374kB time=00:00:06.84 bitrate=5238.1kbits/s speed=0.381x    frame=  391 fps= 21 q=45.0 size=    4374kB time=00:00:07.20 bitrate=4976.2kbits/s speed=0.39x    frame=  409 fps= 22 q=45.0 size=    4374kB time=00:00:07.56 bitrate=4739.3kbits/s speed=0.399x    frame=  427 fps= 22 q=46.0 size=    4374kB time=00:00:07.92 bitrate=4523.9kbits/s speed=0.407x    frame=  445 fps= 22 q=46.0 size=    4374kB time=00:00:08.28 bitrate=4327.2kbits/s speed=0.414x    frame=  463 fps= 23 q=46.0 size=    4374kB time=00:00:08.64 bitrate=4146.9kbits/s speed=0.421x    frame=  481 fps= 23 q=46.0 size=    4374kB time=00:00:09.00 bitrate=3981.1kbits/s speed=0.428x    frame=  499 fps= 23 q=46.0 size=    4374kB time=00:00:09.36 bitrate=3828.0kbits/s speed=0.435x    frame=  500 fps= 23 q=46.0 Lsize=    8807kB time=00:00:09.98 bitrate=7228.3kbits/s speed=0.462x    
video:8802kB audio:0kB subtitle:0kB other streams:0kB global headers:0kB muxing overhead: 0.052011%
bench: utime=1.188s
bench: maxrss=977460kB
